<?xml version="1.0" encoding="utf-8" standalone="no"?>
<!DOCTYPE svg PUBLIC "-//W3C//DTD SVG 1.1//EN"
  "http://www.w3.org/Graphics/SVG/1.1/DTD/svg11.dtd">
<!-- Created with matplotlib (https://matplotlib.org/) -->
<svg height="345.6pt" version="1.1" viewBox="0 0 460.8 345.6" width="460.8pt" xmlns="http://www.w3.org/2000/svg" xmlns:xlink="http://www.w3.org/1999/xlink">
 <defs>
  <style type="text/css">
*{stroke-linecap:butt;stroke-linejoin:round;}
  </style>
 </defs>
 <g id="figure_1">
  <g id="patch_1">
   <path d="M 0 345.6 
L 460.8 345.6 
L 460.8 0 
L 0 0 
z
" style="fill:#ffffff;"/>
  </g>
  <g id="axes_1">
   <g id="patch_2">
    <path d="M 57.6 307.584 
L 414.72 307.584 
L 414.72 41.472 
L 57.6 41.472 
z
" style="fill:#ffffff;"/>
   </g>
   <g id="matplotlib.axis_1">
    <g id="xtick_1">
     <g id="line2d_1">
      <defs>
       <path d="M 0 0 
L 0 3.5 
" id="mc26e05b681" style="stroke:#000000;stroke-width:0.8;"/>
      </defs>
      <g>
       <use style="stroke:#000000;stroke-width:0.8;" x="65.339561" xlink:href="#mc26e05b681" y="307.584"/>
      </g>
     </g>
     <g id="text_1">
      <!-- 575 -->
      <defs>
       <path d="M 10.796875 72.90625 
L 49.515625 72.90625 
L 49.515625 64.59375 
L 19.828125 64.59375 
L 19.828125 46.734375 
Q 21.96875 47.46875 24.109375 47.828125 
Q 26.265625 48.1875 28.421875 48.1875 
Q 40.625 48.1875 47.75 41.5 
Q 54.890625 34.8125 54.890625 23.390625 
Q 54.890625 11.625 47.5625 5.09375 
Q 40.234375 -1.421875 26.90625 -1.421875 
Q 22.3125 -1.421875 17.546875 -0.640625 
Q 12.796875 0.140625 7.71875 1.703125 
L 7.71875 11.625 
Q 12.109375 9.234375 16.796875 8.0625 
Q 21.484375 6.890625 26.703125 6.890625 
Q 35.15625 6.890625 40.078125 11.328125 
Q 45.015625 15.765625 45.015625 23.390625 
Q 45.015625 31 40.078125 35.4375 
Q 35.15625 39.890625 26.703125 39.890625 
Q 22.75 39.890625 18.8125 39.015625 
Q 14.890625 38.140625 10.796875 36.28125 
z
" id="DejaVuSans-53"/>
       <path d="M 8.203125 72.90625 
L 55.078125 72.90625 
L 55.078125 68.703125 
L 28.609375 0 
L 18.3125 0 
L 43.21875 64.59375 
L 8.203125 64.59375 
z
" id="DejaVuSans-55"/>
      </defs>
      <g transform="translate(55.795811 322.182437)scale(0.1 -0.1)">
       <use xlink:href="#DejaVuSans-53"/>
       <use x="63.623047" xlink:href="#DejaVuSans-55"/>
       <use x="127.246094" xlink:href="#DejaVuSans-53"/>
      </g>
     </g>
    </g>
    <g id="xtick_2">
     <g id="line2d_2">
      <g>
       <use style="stroke:#000000;stroke-width:0.8;" x="109.450232" xlink:href="#mc26e05b681" y="307.584"/>
      </g>
     </g>
     <g id="text_2">
      <!-- 600 -->
      <defs>
       <path d="M 33.015625 40.375 
Q 26.375 40.375 22.484375 35.828125 
Q 18.609375 31.296875 18.609375 23.390625 
Q 18.609375 15.53125 22.484375 10.953125 
Q 26.375 6.390625 33.015625 6.390625 
Q 39.65625 6.390625 43.53125 10.953125 
Q 47.40625 15.53125 47.40625 23.390625 
Q 47.40625 31.296875 43.53125 35.828125 
Q 39.65625 40.375 33.015625 40.375 
z
M 52.59375 71.296875 
L 52.59375 62.3125 
Q 48.875 64.0625 45.09375 64.984375 
Q 41.3125 65.921875 37.59375 65.921875 
Q 27.828125 65.921875 22.671875 59.328125 
Q 17.53125 52.734375 16.796875 39.40625 
Q 19.671875 43.65625 24.015625 45.921875 
Q 28.375 48.1875 33.59375 48.1875 
Q 44.578125 48.1875 50.953125 41.515625 
Q 57.328125 34.859375 57.328125 23.390625 
Q 57.328125 12.15625 50.6875 5.359375 
Q 44.046875 -1.421875 33.015625 -1.421875 
Q 20.359375 -1.421875 13.671875 8.265625 
Q 6.984375 17.96875 6.984375 36.375 
Q 6.984375 53.65625 15.1875 63.9375 
Q 23.390625 74.21875 37.203125 74.21875 
Q 40.921875 74.21875 44.703125 73.484375 
Q 48.484375 72.75 52.59375 71.296875 
z
" id="DejaVuSans-54"/>
       <path d="M 31.78125 66.40625 
Q 24.171875 66.40625 20.328125 58.90625 
Q 16.5 51.421875 16.5 36.375 
Q 16.5 21.390625 20.328125 13.890625 
Q 24.171875 6.390625 31.78125 6.390625 
Q 39.453125 6.390625 43.28125 13.890625 
Q 47.125 21.390625 47.125 36.375 
Q 47.125 51.421875 43.28125 58.90625 
Q 39.453125 66.40625 31.78125 66.40625 
z
M 31.78125 74.21875 
Q 44.046875 74.21875 50.515625 64.515625 
Q 56.984375 54.828125 56.984375 36.375 
Q 56.984375 17.96875 50.515625 8.265625 
Q 44.046875 -1.421875 31.78125 -1.421875 
Q 19.53125 -1.421875 13.0625 8.265625 
Q 6.59375 17.96875 6.59375 36.375 
Q 6.59375 54.828125 13.0625 64.515625 
Q 19.53125 74.21875 31.78125 74.21875 
z
" id="DejaVuSans-48"/>
      </defs>
      <g transform="translate(99.906482 322.182437)scale(0.1 -0.1)">
       <use xlink:href="#DejaVuSans-54"/>
       <use x="63.623047" xlink:href="#DejaVuSans-48"/>
       <use x="127.246094" xlink:href="#DejaVuSans-48"/>
      </g>
     </g>
    </g>
    <g id="xtick_3">
     <g id="line2d_3">
      <g>
       <use style="stroke:#000000;stroke-width:0.8;" x="153.560904" xlink:href="#mc26e05b681" y="307.584"/>
      </g>
     </g>
     <g id="text_3">
      <!-- 625 -->
      <defs>
       <path d="M 19.1875 8.296875 
L 53.609375 8.296875 
L 53.609375 0 
L 7.328125 0 
L 7.328125 8.296875 
Q 12.9375 14.109375 22.625 23.890625 
Q 32.328125 33.6875 34.8125 36.53125 
Q 39.546875 41.84375 41.421875 45.53125 
Q 43.3125 49.21875 43.3125 52.78125 
Q 43.3125 58.59375 39.234375 62.25 
Q 35.15625 65.921875 28.609375 65.921875 
Q 23.96875 65.921875 18.8125 64.3125 
Q 13.671875 62.703125 7.8125 59.421875 
L 7.8125 69.390625 
Q 13.765625 71.78125 18.9375 73 
Q 24.125 74.21875 28.421875 74.21875 
Q 39.75 74.21875 46.484375 68.546875 
Q 53.21875 62.890625 53.21875 53.421875 
Q 53.21875 48.921875 51.53125 44.890625 
Q 49.859375 40.875 45.40625 35.40625 
Q 44.1875 33.984375 37.640625 27.21875 
Q 31.109375 20.453125 19.1875 8.296875 
z
" id="DejaVuSans-50"/>
      </defs>
      <g transform="translate(144.017154 322.182437)scale(0.1 -0.1)">
       <use xlink:href="#DejaVuSans-54"/>
       <use x="63.623047" xlink:href="#DejaVuSans-50"/>
       <use x="127.246094" xlink:href="#DejaVuSans-53"/>
      </g>
     </g>
    </g>
    <g id="xtick_4">
     <g id="line2d_4">
      <g>
       <use style="stroke:#000000;stroke-width:0.8;" x="197.671576" xlink:href="#mc26e05b681" y="307.584"/>
      </g>
     </g>
     <g id="text_4">
      <!-- 650 -->
      <g transform="translate(188.127826 322.182437)scale(0.1 -0.1)">
       <use xlink:href="#DejaVuSans-54"/>
       <use x="63.623047" xlink:href="#DejaVuSans-53"/>
       <use x="127.246094" xlink:href="#DejaVuSans-48"/>
      </g>
     </g>
    </g>
    <g id="xtick_5">
     <g id="line2d_5">
      <g>
       <use style="stroke:#000000;stroke-width:0.8;" x="241.782248" xlink:href="#mc26e05b681" y="307.584"/>
      </g>
     </g>
     <g id="text_5">
      <!-- 675 -->
      <g transform="translate(232.238498 322.182437)scale(0.1 -0.1)">
       <use xlink:href="#DejaVuSans-54"/>
       <use x="63.623047" xlink:href="#DejaVuSans-55"/>
       <use x="127.246094" xlink:href="#DejaVuSans-53"/>
      </g>
     </g>
    </g>
    <g id="xtick_6">
     <g id="line2d_6">
      <g>
       <use style="stroke:#000000;stroke-width:0.8;" x="285.89292" xlink:href="#mc26e05b681" y="307.584"/>
      </g>
     </g>
     <g id="text_6">
      <!-- 700 -->
      <g transform="translate(276.34917 322.182437)scale(0.1 -0.1)">
       <use xlink:href="#DejaVuSans-55"/>
       <use x="63.623047" xlink:href="#DejaVuSans-48"/>
       <use x="127.246094" xlink:href="#DejaVuSans-48"/>
      </g>
     </g>
    </g>
    <g id="xtick_7">
     <g id="line2d_7">
      <g>
       <use style="stroke:#000000;stroke-width:0.8;" x="330.003592" xlink:href="#mc26e05b681" y="307.584"/>
      </g>
     </g>
     <g id="text_7">
      <!-- 725 -->
      <g transform="translate(320.459842 322.182437)scale(0.1 -0.1)">
       <use xlink:href="#DejaVuSans-55"/>
       <use x="63.623047" xlink:href="#DejaVuSans-50"/>
       <use x="127.246094" xlink:href="#DejaVuSans-53"/>
      </g>
     </g>
    </g>
    <g id="xtick_8">
     <g id="line2d_8">
      <g>
       <use style="stroke:#000000;stroke-width:0.8;" x="374.114264" xlink:href="#mc26e05b681" y="307.584"/>
      </g>
     </g>
     <g id="text_8">
      <!-- 750 -->
      <g transform="translate(364.570514 322.182437)scale(0.1 -0.1)">
       <use xlink:href="#DejaVuSans-55"/>
       <use x="63.623047" xlink:href="#DejaVuSans-53"/>
       <use x="127.246094" xlink:href="#DejaVuSans-48"/>
      </g>
     </g>
    </g>
    <g id="text_9">
     <!-- frame_time -->
     <defs>
      <path d="M 37.109375 75.984375 
L 37.109375 68.5 
L 28.515625 68.5 
Q 23.6875 68.5 21.796875 66.546875 
Q 19.921875 64.59375 19.921875 59.515625 
L 19.921875 54.6875 
L 34.71875 54.6875 
L 34.71875 47.703125 
L 19.921875 47.703125 
L 19.921875 0 
L 10.890625 0 
L 10.890625 47.703125 
L 2.296875 47.703125 
L 2.296875 54.6875 
L 10.890625 54.6875 
L 10.890625 58.5 
Q 10.890625 67.625 15.140625 71.796875 
Q 19.390625 75.984375 28.609375 75.984375 
z
" id="DejaVuSans-102"/>
      <path d="M 41.109375 46.296875 
Q 39.59375 47.171875 37.8125 47.578125 
Q 36.03125 48 33.890625 48 
Q 26.265625 48 22.1875 43.046875 
Q 18.109375 38.09375 18.109375 28.8125 
L 18.109375 0 
L 9.078125 0 
L 9.078125 54.6875 
L 18.109375 54.6875 
L 18.109375 46.1875 
Q 20.953125 51.171875 25.484375 53.578125 
Q 30.03125 56 36.53125 56 
Q 37.453125 56 38.578125 55.875 
Q 39.703125 55.765625 41.0625 55.515625 
z
" id="DejaVuSans-114"/>
      <path d="M 34.28125 27.484375 
Q 23.390625 27.484375 19.1875 25 
Q 14.984375 22.515625 14.984375 16.5 
Q 14.984375 11.71875 18.140625 8.90625 
Q 21.296875 6.109375 26.703125 6.109375 
Q 34.1875 6.109375 38.703125 11.40625 
Q 43.21875 16.703125 43.21875 25.484375 
L 43.21875 27.484375 
z
M 52.203125 31.203125 
L 52.203125 0 
L 43.21875 0 
L 43.21875 8.296875 
Q 40.140625 3.328125 35.546875 0.953125 
Q 30.953125 -1.421875 24.3125 -1.421875 
Q 15.921875 -1.421875 10.953125 3.296875 
Q 6 8.015625 6 15.921875 
Q 6 25.140625 12.171875 29.828125 
Q 18.359375 34.515625 30.609375 34.515625 
L 43.21875 34.515625 
L 43.21875 35.40625 
Q 43.21875 41.609375 39.140625 45 
Q 35.0625 48.390625 27.6875 48.390625 
Q 23 48.390625 18.546875 47.265625 
Q 14.109375 46.140625 10.015625 43.890625 
L 10.015625 52.203125 
Q 14.9375 54.109375 19.578125 55.046875 
Q 24.21875 56 28.609375 56 
Q 40.484375 56 46.34375 49.84375 
Q 52.203125 43.703125 52.203125 31.203125 
z
" id="DejaVuSans-97"/>
      <path d="M 52 44.1875 
Q 55.375 50.25 60.0625 53.125 
Q 64.75 56 71.09375 56 
Q 79.640625 56 84.28125 50.015625 
Q 88.921875 44.046875 88.921875 33.015625 
L 88.921875 0 
L 79.890625 0 
L 79.890625 32.71875 
Q 79.890625 40.578125 77.09375 44.375 
Q 74.3125 48.1875 68.609375 48.1875 
Q 61.625 48.1875 57.5625 43.546875 
Q 53.515625 38.921875 53.515625 30.90625 
L 53.515625 0 
L 44.484375 0 
L 44.484375 32.71875 
Q 44.484375 40.625 41.703125 44.40625 
Q 38.921875 48.1875 33.109375 48.1875 
Q 26.21875 48.1875 22.15625 43.53125 
Q 18.109375 38.875 18.109375 30.90625 
L 18.109375 0 
L 9.078125 0 
L 9.078125 54.6875 
L 18.109375 54.6875 
L 18.109375 46.1875 
Q 21.1875 51.21875 25.484375 53.609375 
Q 29.78125 56 35.6875 56 
Q 41.65625 56 45.828125 52.96875 
Q 50 49.953125 52 44.1875 
z
" id="DejaVuSans-109"/>
      <path d="M 56.203125 29.59375 
L 56.203125 25.203125 
L 14.890625 25.203125 
Q 15.484375 15.921875 20.484375 11.0625 
Q 25.484375 6.203125 34.421875 6.203125 
Q 39.59375 6.203125 44.453125 7.46875 
Q 49.3125 8.734375 54.109375 11.28125 
L 54.109375 2.78125 
Q 49.265625 0.734375 44.1875 -0.34375 
Q 39.109375 -1.421875 33.890625 -1.421875 
Q 20.796875 -1.421875 13.15625 6.1875 
Q 5.515625 13.8125 5.515625 26.8125 
Q 5.515625 40.234375 12.765625 48.109375 
Q 20.015625 56 32.328125 56 
Q 43.359375 56 49.78125 48.890625 
Q 56.203125 41.796875 56.203125 29.59375 
z
M 47.21875 32.234375 
Q 47.125 39.59375 43.09375 43.984375 
Q 39.0625 48.390625 32.421875 48.390625 
Q 24.90625 48.390625 20.390625 44.140625 
Q 15.875 39.890625 15.1875 32.171875 
z
" id="DejaVuSans-101"/>
      <path d="M 50.984375 -16.609375 
L 50.984375 -23.578125 
L -0.984375 -23.578125 
L -0.984375 -16.609375 
z
" id="DejaVuSans-95"/>
      <path d="M 18.3125 70.21875 
L 18.3125 54.6875 
L 36.8125 54.6875 
L 36.8125 47.703125 
L 18.3125 47.703125 
L 18.3125 18.015625 
Q 18.3125 11.328125 20.140625 9.421875 
Q 21.96875 7.515625 27.59375 7.515625 
L 36.8125 7.515625 
L 36.8125 0 
L 27.59375 0 
Q 17.1875 0 13.234375 3.875 
Q 9.28125 7.765625 9.28125 18.015625 
L 9.28125 47.703125 
L 2.6875 47.703125 
L 2.6875 54.6875 
L 9.28125 54.6875 
L 9.28125 70.21875 
z
" id="DejaVuSans-116"/>
      <path d="M 9.421875 54.6875 
L 18.40625 54.6875 
L 18.40625 0 
L 9.421875 0 
z
M 9.421875 75.984375 
L 18.40625 75.984375 
L 18.40625 64.59375 
L 9.421875 64.59375 
z
" id="DejaVuSans-105"/>
     </defs>
     <g transform="translate(207.537344 335.860562)scale(0.1 -0.1)">
      <use xlink:href="#DejaVuSans-102"/>
      <use x="35.205078" xlink:href="#DejaVuSans-114"/>
      <use x="76.318359" xlink:href="#DejaVuSans-97"/>
      <use x="137.597656" xlink:href="#DejaVuSans-109"/>
      <use x="235.009766" xlink:href="#DejaVuSans-101"/>
      <use x="296.533203" xlink:href="#DejaVuSans-95"/>
      <use x="346.533203" xlink:href="#DejaVuSans-116"/>
      <use x="385.742188" xlink:href="#DejaVuSans-105"/>
      <use x="413.525391" xlink:href="#DejaVuSans-109"/>
      <use x="510.9375" xlink:href="#DejaVuSans-101"/>
     </g>
    </g>
    <g id="text_10">
     <!-- +1.403636e9 -->
     <defs>
      <path d="M 46 62.703125 
L 46 35.5 
L 73.1875 35.5 
L 73.1875 27.203125 
L 46 27.203125 
L 46 0 
L 37.796875 0 
L 37.796875 27.203125 
L 10.59375 27.203125 
L 10.59375 35.5 
L 37.796875 35.5 
L 37.796875 62.703125 
z
" id="DejaVuSans-43"/>
      <path d="M 12.40625 8.296875 
L 28.515625 8.296875 
L 28.515625 63.921875 
L 10.984375 60.40625 
L 10.984375 69.390625 
L 28.421875 72.90625 
L 38.28125 72.90625 
L 38.28125 8.296875 
L 54.390625 8.296875 
L 54.390625 0 
L 12.40625 0 
z
" id="DejaVuSans-49"/>
      <path d="M 10.6875 12.40625 
L 21 12.40625 
L 21 0 
L 10.6875 0 
z
" id="DejaVuSans-46"/>
      <path d="M 37.796875 64.3125 
L 12.890625 25.390625 
L 37.796875 25.390625 
z
M 35.203125 72.90625 
L 47.609375 72.90625 
L 47.609375 25.390625 
L 58.015625 25.390625 
L 58.015625 17.1875 
L 47.609375 17.1875 
L 47.609375 0 
L 37.796875 0 
L 37.796875 17.1875 
L 4.890625 17.1875 
L 4.890625 26.703125 
z
" id="DejaVuSans-52"/>
      <path d="M 40.578125 39.3125 
Q 47.65625 37.796875 51.625 33 
Q 55.609375 28.21875 55.609375 21.1875 
Q 55.609375 10.40625 48.1875 4.484375 
Q 40.765625 -1.421875 27.09375 -1.421875 
Q 22.515625 -1.421875 17.65625 -0.515625 
Q 12.796875 0.390625 7.625 2.203125 
L 7.625 11.71875 
Q 11.71875 9.328125 16.59375 8.109375 
Q 21.484375 6.890625 26.8125 6.890625 
Q 36.078125 6.890625 40.9375 10.546875 
Q 45.796875 14.203125 45.796875 21.1875 
Q 45.796875 27.640625 41.28125 31.265625 
Q 36.765625 34.90625 28.71875 34.90625 
L 20.21875 34.90625 
L 20.21875 43.015625 
L 29.109375 43.015625 
Q 36.375 43.015625 40.234375 45.921875 
Q 44.09375 48.828125 44.09375 54.296875 
Q 44.09375 59.90625 40.109375 62.90625 
Q 36.140625 65.921875 28.71875 65.921875 
Q 24.65625 65.921875 20.015625 65.03125 
Q 15.375 64.15625 9.8125 62.3125 
L 9.8125 71.09375 
Q 15.4375 72.65625 20.34375 73.4375 
Q 25.25 74.21875 29.59375 74.21875 
Q 40.828125 74.21875 47.359375 69.109375 
Q 53.90625 64.015625 53.90625 55.328125 
Q 53.90625 49.265625 50.4375 45.09375 
Q 46.96875 40.921875 40.578125 39.3125 
z
" id="DejaVuSans-51"/>
      <path d="M 10.984375 1.515625 
L 10.984375 10.5 
Q 14.703125 8.734375 18.5 7.8125 
Q 22.3125 6.890625 25.984375 6.890625 
Q 35.75 6.890625 40.890625 13.453125 
Q 46.046875 20.015625 46.78125 33.40625 
Q 43.953125 29.203125 39.59375 26.953125 
Q 35.25 24.703125 29.984375 24.703125 
Q 19.046875 24.703125 12.671875 31.3125 
Q 6.296875 37.9375 6.296875 49.421875 
Q 6.296875 60.640625 12.9375 67.421875 
Q 19.578125 74.21875 30.609375 74.21875 
Q 43.265625 74.21875 49.921875 64.515625 
Q 56.59375 54.828125 56.59375 36.375 
Q 56.59375 19.140625 48.40625 8.859375 
Q 40.234375 -1.421875 26.421875 -1.421875 
Q 22.703125 -1.421875 18.890625 -0.6875 
Q 15.09375 0.046875 10.984375 1.515625 
z
M 30.609375 32.421875 
Q 37.25 32.421875 41.125 36.953125 
Q 45.015625 41.5 45.015625 49.421875 
Q 45.015625 57.28125 41.125 61.84375 
Q 37.25 66.40625 30.609375 66.40625 
Q 23.96875 66.40625 20.09375 61.84375 
Q 16.21875 57.28125 16.21875 49.421875 
Q 16.21875 41.5 20.09375 36.953125 
Q 23.96875 32.421875 30.609375 32.421875 
z
" id="DejaVuSans-57"/>
     </defs>
     <g transform="translate(346.109063 334.860562)scale(0.1 -0.1)">
      <use xlink:href="#DejaVuSans-43"/>
      <use x="83.789062" xlink:href="#DejaVuSans-49"/>
      <use x="147.412109" xlink:href="#DejaVuSans-46"/>
      <use x="179.199219" xlink:href="#DejaVuSans-52"/>
      <use x="242.822266" xlink:href="#DejaVuSans-48"/>
      <use x="306.445312" xlink:href="#DejaVuSans-51"/>
      <use x="370.068359" xlink:href="#DejaVuSans-54"/>
      <use x="433.691406" xlink:href="#DejaVuSans-51"/>
      <use x="497.314453" xlink:href="#DejaVuSans-54"/>
      <use x="560.9375" xlink:href="#DejaVuSans-101"/>
      <use x="622.460938" xlink:href="#DejaVuSans-57"/>
     </g>
    </g>
   </g>
   <g id="matplotlib.axis_2">
    <g id="ytick_1">
     <g id="line2d_9">
      <defs>
       <path d="M 0 0 
L -3.5 0 
" id="m048e7dab9e" style="stroke:#000000;stroke-width:0.8;"/>
      </defs>
      <g>
       <use style="stroke:#000000;stroke-width:0.8;" x="57.6" xlink:href="#m048e7dab9e" y="295.893803"/>
      </g>
     </g>
     <g id="text_11">
      <!-- 0 -->
      <g transform="translate(44.2375 299.693022)scale(0.1 -0.1)">
       <use xlink:href="#DejaVuSans-48"/>
      </g>
     </g>
    </g>
    <g id="ytick_2">
     <g id="line2d_10">
      <g>
       <use style="stroke:#000000;stroke-width:0.8;" x="57.6" xlink:href="#m048e7dab9e" y="252.067032"/>
      </g>
     </g>
     <g id="text_12">
      <!-- 100 -->
      <g transform="translate(31.5125 255.866251)scale(0.1 -0.1)">
       <use xlink:href="#DejaVuSans-49"/>
       <use x="63.623047" xlink:href="#DejaVuSans-48"/>
       <use x="127.246094" xlink:href="#DejaVuSans-48"/>
      </g>
     </g>
    </g>
    <g id="ytick_3">
     <g id="line2d_11">
      <g>
       <use style="stroke:#000000;stroke-width:0.8;" x="57.6" xlink:href="#m048e7dab9e" y="208.240261"/>
      </g>
     </g>
     <g id="text_13">
      <!-- 200 -->
      <g transform="translate(31.5125 212.03948)scale(0.1 -0.1)">
       <use xlink:href="#DejaVuSans-50"/>
       <use x="63.623047" xlink:href="#DejaVuSans-48"/>
       <use x="127.246094" xlink:href="#DejaVuSans-48"/>
      </g>
     </g>
    </g>
    <g id="ytick_4">
     <g id="line2d_12">
      <g>
       <use style="stroke:#000000;stroke-width:0.8;" x="57.6" xlink:href="#m048e7dab9e" y="164.41349"/>
      </g>
     </g>
     <g id="text_14">
      <!-- 300 -->
      <g transform="translate(31.5125 168.212709)scale(0.1 -0.1)">
       <use xlink:href="#DejaVuSans-51"/>
       <use x="63.623047" xlink:href="#DejaVuSans-48"/>
       <use x="127.246094" xlink:href="#DejaVuSans-48"/>
      </g>
     </g>
    </g>
    <g id="ytick_5">
     <g id="line2d_13">
      <g>
       <use style="stroke:#000000;stroke-width:0.8;" x="57.6" xlink:href="#m048e7dab9e" y="120.586719"/>
      </g>
     </g>
     <g id="text_15">
      <!-- 400 -->
      <g transform="translate(31.5125 124.385938)scale(0.1 -0.1)">
       <use xlink:href="#DejaVuSans-52"/>
       <use x="63.623047" xlink:href="#DejaVuSans-48"/>
       <use x="127.246094" xlink:href="#DejaVuSans-48"/>
      </g>
     </g>
    </g>
    <g id="ytick_6">
     <g id="line2d_14">
      <g>
       <use style="stroke:#000000;stroke-width:0.8;" x="57.6" xlink:href="#m048e7dab9e" y="76.759948"/>
      </g>
     </g>
     <g id="text_16">
      <!-- 500 -->
      <g transform="translate(31.5125 80.559167)scale(0.1 -0.1)">
       <use xlink:href="#DejaVuSans-53"/>
       <use x="63.623047" xlink:href="#DejaVuSans-48"/>
       <use x="127.246094" xlink:href="#DejaVuSans-48"/>
      </g>
     </g>
    </g>
    <g id="text_17">
     <!-- track_rate(%) -->
     <defs>
      <path d="M 48.78125 52.59375 
L 48.78125 44.1875 
Q 44.96875 46.296875 41.140625 47.34375 
Q 37.3125 48.390625 33.40625 48.390625 
Q 24.65625 48.390625 19.8125 42.84375 
Q 14.984375 37.3125 14.984375 27.296875 
Q 14.984375 17.28125 19.8125 11.734375 
Q 24.65625 6.203125 33.40625 6.203125 
Q 37.3125 6.203125 41.140625 7.25 
Q 44.96875 8.296875 48.78125 10.40625 
L 48.78125 2.09375 
Q 45.015625 0.34375 40.984375 -0.53125 
Q 36.96875 -1.421875 32.421875 -1.421875 
Q 20.0625 -1.421875 12.78125 6.34375 
Q 5.515625 14.109375 5.515625 27.296875 
Q 5.515625 40.671875 12.859375 48.328125 
Q 20.21875 56 33.015625 56 
Q 37.15625 56 41.109375 55.140625 
Q 45.0625 54.296875 48.78125 52.59375 
z
" id="DejaVuSans-99"/>
      <path d="M 9.078125 75.984375 
L 18.109375 75.984375 
L 18.109375 31.109375 
L 44.921875 54.6875 
L 56.390625 54.6875 
L 27.390625 29.109375 
L 57.625 0 
L 45.90625 0 
L 18.109375 26.703125 
L 18.109375 0 
L 9.078125 0 
z
" id="DejaVuSans-107"/>
      <path d="M 31 75.875 
Q 24.46875 64.65625 21.28125 53.65625 
Q 18.109375 42.671875 18.109375 31.390625 
Q 18.109375 20.125 21.3125 9.0625 
Q 24.515625 -2 31 -13.1875 
L 23.1875 -13.1875 
Q 15.875 -1.703125 12.234375 9.375 
Q 8.59375 20.453125 8.59375 31.390625 
Q 8.59375 42.28125 12.203125 53.3125 
Q 15.828125 64.359375 23.1875 75.875 
z
" id="DejaVuSans-40"/>
      <path d="M 72.703125 32.078125 
Q 68.453125 32.078125 66.03125 28.46875 
Q 63.625 24.859375 63.625 18.40625 
Q 63.625 12.0625 66.03125 8.421875 
Q 68.453125 4.78125 72.703125 4.78125 
Q 76.859375 4.78125 79.265625 8.421875 
Q 81.6875 12.0625 81.6875 18.40625 
Q 81.6875 24.8125 79.265625 28.4375 
Q 76.859375 32.078125 72.703125 32.078125 
z
M 72.703125 38.28125 
Q 80.421875 38.28125 84.953125 32.90625 
Q 89.5 27.546875 89.5 18.40625 
Q 89.5 9.28125 84.9375 3.921875 
Q 80.375 -1.421875 72.703125 -1.421875 
Q 64.890625 -1.421875 60.34375 3.921875 
Q 55.8125 9.28125 55.8125 18.40625 
Q 55.8125 27.59375 60.375 32.9375 
Q 64.9375 38.28125 72.703125 38.28125 
z
M 22.3125 68.015625 
Q 18.109375 68.015625 15.6875 64.375 
Q 13.28125 60.75 13.28125 54.390625 
Q 13.28125 47.953125 15.671875 44.328125 
Q 18.0625 40.71875 22.3125 40.71875 
Q 26.5625 40.71875 28.96875 44.328125 
Q 31.390625 47.953125 31.390625 54.390625 
Q 31.390625 60.6875 28.953125 64.34375 
Q 26.515625 68.015625 22.3125 68.015625 
z
M 66.40625 74.21875 
L 74.21875 74.21875 
L 28.609375 -1.421875 
L 20.796875 -1.421875 
z
M 22.3125 74.21875 
Q 30.03125 74.21875 34.609375 68.875 
Q 39.203125 63.53125 39.203125 54.390625 
Q 39.203125 45.171875 34.640625 39.84375 
Q 30.078125 34.515625 22.3125 34.515625 
Q 14.546875 34.515625 10.03125 39.859375 
Q 5.515625 45.21875 5.515625 54.390625 
Q 5.515625 63.484375 10.046875 68.84375 
Q 14.59375 74.21875 22.3125 74.21875 
z
" id="DejaVuSans-37"/>
      <path d="M 8.015625 75.875 
L 15.828125 75.875 
Q 23.140625 64.359375 26.78125 53.3125 
Q 30.421875 42.28125 30.421875 31.390625 
Q 30.421875 20.453125 26.78125 9.375 
Q 23.140625 -1.703125 15.828125 -13.1875 
L 8.015625 -13.1875 
Q 14.5 -2 17.703125 9.0625 
Q 20.90625 20.125 20.90625 31.390625 
Q 20.90625 42.671875 17.703125 53.65625 
Q 14.5 64.65625 8.015625 75.875 
z
" id="DejaVuSans-41"/>
     </defs>
     <g transform="translate(25.154687 208.560812)rotate(-90)scale(0.1 -0.1)">
      <use xlink:href="#DejaVuSans-116"/>
      <use x="39.208984" xlink:href="#DejaVuSans-114"/>
      <use x="80.322266" xlink:href="#DejaVuSans-97"/>
      <use x="141.601562" xlink:href="#DejaVuSans-99"/>
      <use x="196.582031" xlink:href="#DejaVuSans-107"/>
      <use x="254.492188" xlink:href="#DejaVuSans-95"/>
      <use x="304.492188" xlink:href="#DejaVuSans-114"/>
      <use x="345.605469" xlink:href="#DejaVuSans-97"/>
      <use x="406.884766" xlink:href="#DejaVuSans-116"/>
      <use x="446.09375" xlink:href="#DejaVuSans-101"/>
      <use x="507.617188" xlink:href="#DejaVuSans-40"/>
      <use x="546.630859" xlink:href="#DejaVuSans-37"/>
      <use x="641.650391" xlink:href="#DejaVuSans-41"/>
     </g>
    </g>
   </g>
   <g id="line2d_15">
    <path clip-path="url(#pd334e331ad)" d="M 73.832727 279.235566 
L 75.597154 93.166974 
L 77.361581 53.568 
L 79.126008 80.28314 
L 80.890434 100.577906 
L 82.654861 106.067459 
L 84.419288 87.72139 
L 86.183715 127.057715 
L 87.948142 142.679387 
L 89.712569 143.282419 
L 91.476996 166.458526 
L 93.241423 165.39838 
L 95.005849 154.639789 
L 96.770277 116.920336 
L 98.534703 93.962578 
L 100.29913 148.73094 
L 102.063557 128.517774 
L 105.592411 149.503736 
L 107.356838 133.937445 
L 109.121264 181.37257 
L 110.885691 191.203796 
L 112.650118 189.958639 
L 114.414545 200.272673 
L 116.178972 183.557941 
L 117.943399 178.11198 
L 119.707826 202.532343 
L 121.472253 188.51891 
L 123.23668 206.972171 
L 125.001106 157.078922 
L 126.765533 229.590934 
L 128.52996 233.680863 
L 130.294387 236.12837 
L 132.058814 236.837055 
L 133.823241 237.026434 
L 135.587667 236.463475 
L 137.352095 211.640688 
L 139.116521 216.585353 
L 140.880948 219.995061 
L 142.645375 207.670014 
L 144.409802 197.008048 
L 146.174229 233.687795 
L 147.938656 240.080488 
L 149.703083 234.801676 
L 151.46751 234.71787 
L 153.231936 222.279735 
L 154.996363 213.562246 
L 156.76079 214.229131 
L 158.525217 191.48719 
L 160.289644 185.845036 
L 162.054071 185.514059 
L 163.818498 184.672661 
L 165.582924 192.978177 
L 167.347352 188.339995 
L 169.111778 197.316662 
L 170.876205 186.912992 
L 172.640632 186.846825 
L 174.405059 184.43811 
L 176.169486 189.616099 
L 177.933913 180.602408 
L 179.698339 178.90178 
L 181.462767 180.813223 
L 183.227193 193.061116 
L 184.99162 198.602536 
L 186.756047 182.215727 
L 188.520474 181.47455 
L 190.284901 170.144234 
L 192.049328 181.496529 
L 193.813755 184.763012 
L 195.578181 173.330577 
L 197.342608 195.671028 
L 199.107035 174.70442 
L 200.871462 179.913329 
L 202.635889 174.919209 
L 204.400316 172.153231 
L 206.164743 178.714994 
L 207.92917 180.869631 
L 209.693596 175.882868 
L 211.458024 184.626144 
L 213.22245 188.518865 
L 214.986877 199.470089 
L 216.751304 192.924157 
L 218.515731 193.763581 
L 220.280158 183.435568 
L 222.044585 181.845885 
L 223.809011 192.489849 
L 225.573438 205.892429 
L 227.337865 203.994191 
L 230.866719 198.93095 
L 232.631146 188.54483 
L 234.395573 171.490225 
L 236.16 168.300198 
L 237.924427 163.737656 
L 239.688853 170.189342 
L 241.45328 172.705252 
L 243.217707 170.905422 
L 244.982134 175.346222 
L 246.746561 166.656477 
L 248.510988 167.905604 
L 250.275414 183.883317 
L 252.039842 179.885833 
L 253.804268 173.557164 
L 255.568695 183.618595 
L 257.333122 166.222951 
L 259.097549 165.047458 
L 260.861976 166.15224 
L 262.626403 165.35372 
L 264.39083 156.950061 
L 266.155257 169.183707 
L 267.919683 176.309311 
L 269.68411 190.677468 
L 271.448537 202.372281 
L 273.212964 218.197798 
L 274.977391 190.756473 
L 276.741818 201.276399 
L 278.506245 195.595824 
L 280.270671 190.655138 
L 282.035099 183.475924 
L 283.799525 165.499472 
L 285.563952 175.851829 
L 287.328379 168.572708 
L 289.092806 176.600541 
L 290.857233 175.95692 
L 292.62166 182.848942 
L 294.386086 188.308485 
L 296.150514 182.833801 
L 297.91494 194.731544 
L 299.679367 190.856731 
L 301.443794 185.637651 
L 303.208221 181.411815 
L 304.972648 181.687164 
L 306.737075 166.489964 
L 308.501502 161.134935 
L 310.265928 159.955291 
L 313.794782 151.491762 
L 315.559209 132.552304 
L 317.323636 143.625684 
L 319.088063 151.537285 
L 320.852489 128.194354 
L 322.616917 158.232246 
L 324.381343 145.110778 
L 326.145771 161.916255 
L 327.910197 139.237364 
L 329.674624 148.83194 
L 331.439051 157.500175 
L 333.203478 156.438266 
L 334.967905 156.095474 
L 336.732332 145.421884 
L 338.496758 148.236545 
L 340.261185 146.054301 
L 342.025612 137.415283 
L 343.790039 140.283551 
L 345.554466 136.757989 
L 347.318893 125.381229 
L 349.08332 134.100384 
L 350.847746 121.814592 
L 352.612174 128.751246 
L 354.3766 131.024084 
L 356.141027 132.694812 
L 357.905454 146.204615 
L 359.669881 135.077021 
L 361.434308 149.092395 
L 363.198735 155.737785 
L 364.963161 157.184102 
L 366.727589 164.617452 
L 368.492015 168.284071 
L 370.256442 177.725253 
L 372.020869 164.47794 
L 375.549723 177.612087 
L 377.31415 160.716054 
L 379.078577 171.424402 
L 380.843003 165.14003 
L 382.60743 169.18816 
L 384.371857 145.027211 
L 386.136284 160.628029 
L 387.900711 147.058542 
L 389.665138 148.678983 
L 391.429565 166.117088 
L 393.193992 167.817436 
L 394.958418 168.206073 
L 396.722846 182.81648 
L 398.487272 221.494184 
L 398.487272 221.494184 
" style="fill:none;stroke:#1f77b4;stroke-linecap:square;stroke-width:1.5;"/>
   </g>
   <g id="line2d_16">
    <path clip-path="url(#pd334e331ad)" d="M 73.832727 279.235566 
L 75.597154 93.166974 
L 77.361581 53.568 
L 79.126008 80.28314 
L 80.890434 100.577906 
L 82.654861 106.067459 
L 84.419288 87.72139 
L 86.183715 127.057715 
L 87.948142 142.679387 
L 89.712569 143.282419 
L 91.476996 166.458526 
L 93.241423 165.39838 
L 95.005849 154.639789 
L 96.770277 116.920336 
L 98.534703 93.962578 
L 100.29913 148.73094 
L 102.063557 128.517774 
L 105.592411 149.503736 
L 107.356838 133.937445 
L 109.121264 181.37257 
L 110.885691 191.203796 
L 112.650118 189.958639 
L 114.414545 200.272673 
L 116.178972 183.557941 
L 117.943399 178.11198 
L 119.707826 202.532343 
L 121.472253 188.51891 
L 123.23668 206.972171 
L 125.001106 157.078922 
L 126.765533 229.590934 
L 128.52996 233.680863 
L 130.294387 236.12837 
L 132.058814 236.837055 
L 133.823241 237.026434 
L 135.587667 236.463475 
L 137.352095 211.640688 
L 139.116521 216.585353 
L 140.880948 219.995061 
L 142.645375 207.670014 
L 144.409802 197.008048 
L 146.174229 233.687795 
L 147.938656 240.080488 
L 149.703083 234.801676 
L 151.46751 234.71787 
L 153.231936 222.279735 
L 154.996363 213.562246 
L 156.76079 214.229131 
L 158.525217 191.48719 
L 160.289644 185.845036 
L 162.054071 185.514059 
L 163.818498 184.672661 
L 165.582924 192.978177 
L 167.347352 188.339995 
L 169.111778 197.316662 
L 170.876205 186.912992 
L 172.640632 186.846825 
L 174.405059 184.43811 
L 176.169486 189.616099 
L 177.933913 180.602408 
L 179.698339 178.90178 
L 181.462767 180.813223 
L 183.227193 193.061116 
L 184.99162 198.602536 
L 186.756047 182.215727 
L 188.520474 181.47455 
L 190.284901 170.144234 
L 192.049328 181.496529 
L 193.813755 184.763012 
L 195.578181 173.330577 
L 197.342608 195.671028 
L 199.107035 174.70442 
L 200.871462 179.913329 
L 202.635889 174.919209 
L 204.400316 172.153231 
L 206.164743 178.714994 
L 207.92917 180.869631 
L 209.693596 175.882868 
L 211.458024 184.626144 
L 213.22245 188.518865 
L 214.986877 199.470089 
L 216.751304 192.924157 
L 218.515731 193.763581 
L 220.280158 183.435568 
L 222.044585 181.845885 
L 223.809011 192.489849 
L 225.573438 205.892429 
L 227.337865 203.994191 
L 230.866719 198.93095 
L 232.631146 188.54483 
L 234.395573 171.490225 
L 236.16 168.300198 
L 237.924427 163.737656 
L 239.688853 170.189342 
L 241.45328 172.705252 
L 243.217707 170.905422 
L 244.982134 175.346222 
L 246.746561 166.656477 
L 248.510988 167.905604 
L 250.275414 183.883317 
L 252.039842 179.885833 
L 253.804268 173.557164 
L 255.568695 183.618595 
L 257.333122 166.222951 
L 259.097549 165.047458 
L 260.861976 166.15224 
L 262.626403 165.35372 
L 264.39083 156.950061 
L 266.155257 169.183707 
L 267.919683 176.309311 
L 269.68411 190.677468 
L 271.448537 202.372281 
L 273.212964 218.197798 
L 274.977391 190.756473 
L 276.741818 201.276399 
L 278.506245 195.595824 
L 280.270671 190.655138 
L 282.035099 183.475924 
L 283.799525 165.499472 
L 285.563952 175.851829 
L 287.328379 168.572708 
L 289.092806 176.600541 
L 290.857233 175.95692 
L 292.62166 182.848942 
L 294.386086 188.308485 
L 296.150514 182.833801 
L 297.91494 194.731544 
L 299.679367 190.856731 
L 301.443794 185.637651 
L 303.208221 181.411815 
L 304.972648 181.687164 
L 306.737075 166.489964 
L 308.501502 161.134935 
L 310.265928 159.955291 
L 313.794782 151.491762 
L 315.559209 132.552304 
L 317.323636 143.625684 
L 319.088063 151.537285 
L 320.852489 128.194354 
L 322.616917 158.232246 
L 324.381343 145.110778 
L 326.145771 161.916255 
L 327.910197 139.237364 
L 329.674624 148.83194 
L 331.439051 157.500175 
L 333.203478 156.438266 
L 334.967905 156.095474 
L 336.732332 145.421884 
L 338.496758 148.236545 
L 340.261185 146.054301 
L 342.025612 137.415283 
L 343.790039 140.283551 
L 345.554466 136.757989 
L 347.318893 125.381229 
L 349.08332 134.100384 
L 350.847746 121.814592 
L 352.612174 128.751246 
L 354.3766 131.024084 
L 356.141027 132.694812 
L 357.905454 146.204615 
L 359.669881 135.077021 
L 361.434308 149.092395 
L 363.198735 155.737785 
L 364.963161 157.184102 
L 366.727589 164.617452 
L 368.492015 168.284071 
L 370.256442 177.725253 
L 372.020869 164.47794 
L 375.549723 177.612087 
L 377.31415 160.716054 
L 379.078577 171.424402 
L 380.843003 165.14003 
L 382.60743 169.18816 
L 384.371857 145.027211 
L 386.136284 160.628029 
L 387.900711 147.058542 
L 389.665138 148.678983 
L 391.429565 166.117088 
L 393.193992 167.817436 
L 394.958418 168.206073 
L 396.722846 182.81648 
L 398.487272 221.494184 
L 398.487272 221.494184 
" style="fill:none;stroke:#0000ff;stroke-linecap:square;stroke-width:1.5;"/>
   </g>
   <g id="line2d_17">
    <path clip-path="url(#pd334e331ad)" d="M 73.832727 295.488 
L 75.597154 288.897984 
L 77.361581 288.053124 
L 79.126008 288.718131 
L 80.890434 288.047883 
L 82.654861 288.624542 
L 84.419288 287.686102 
L 86.183715 287.684122 
L 87.948142 287.551833 
L 89.712569 287.60012 
L 91.476996 288.104643 
L 93.241423 287.8254 
L 96.770277 288.069205 
L 98.534703 289.567187 
L 100.29913 290.204173 
L 102.063557 290.130439 
L 103.827984 288.829427 
L 107.356838 288.645114 
L 109.121264 288.250754 
L 110.885691 287.238459 
L 114.414545 287.148646 
L 151.46751 287.151034 
L 153.231936 287.638809 
L 154.996363 288.310464 
L 158.525217 287.309252 
L 163.818498 287.724735 
L 165.582924 287.495127 
L 170.876205 287.523948 
L 172.640632 287.639303 
L 174.405059 287.916987 
L 176.169486 287.524085 
L 181.462767 287.628874 
L 186.756047 287.371234 
L 192.049328 287.941925 
L 193.813755 287.546925 
L 195.578181 287.857256 
L 197.342608 287.509897 
L 199.107035 287.616256 
L 200.871462 287.404311 
L 202.635889 288.099382 
L 204.400316 287.419751 
L 207.92917 287.673602 
L 209.693596 288.123508 
L 211.458024 288.100475 
L 213.22245 288.3625 
L 214.986877 288.038455 
L 216.751304 288.209555 
L 218.515731 288.142581 
L 222.044585 288.313641 
L 223.809011 288.900404 
L 225.573438 289.098014 
L 227.337865 288.826236 
L 230.866719 287.874405 
L 232.631146 287.961102 
L 234.395573 287.769828 
L 237.924427 288.058577 
L 239.688853 287.711419 
L 241.45328 287.609678 
L 243.217707 287.680469 
L 244.982134 287.894606 
L 246.746561 287.650846 
L 250.275414 287.814088 
L 252.039842 287.646591 
L 253.804268 287.732472 
L 257.333122 287.599917 
L 259.097549 287.612596 
L 260.861976 287.503542 
L 266.155257 287.718887 
L 267.919683 287.865913 
L 269.68411 287.825836 
L 271.448537 288.611751 
L 273.212964 287.964982 
L 274.977391 287.563251 
L 289.092806 287.537746 
L 290.857233 287.77725 
L 294.386086 287.885011 
L 296.150514 288.110883 
L 304.972648 287.707582 
L 306.737075 287.505333 
L 317.323636 287.418266 
L 319.088063 287.554683 
L 327.910197 287.386568 
L 329.674624 287.435751 
L 333.203478 287.237748 
L 340.261185 287.279 
L 354.3766 287.236538 
L 356.141027 287.518825 
L 357.905454 287.297072 
L 359.669881 287.397173 
L 361.434308 287.364236 
L 363.198735 287.551874 
L 366.727589 287.757828 
L 368.492015 287.879071 
L 370.256442 287.632646 
L 373.785296 287.615834 
L 377.31415 287.426293 
L 380.843003 287.503942 
L 382.60743 287.31308 
L 384.371857 287.400407 
L 386.136284 287.320391 
L 387.900711 287.626278 
L 389.665138 287.783942 
L 391.429565 287.399845 
L 393.193992 287.414598 
L 394.958418 287.921812 
L 396.722846 287.856398 
L 398.487272 289.59308 
L 398.487272 289.59308 
" style="fill:none;stroke:#ff7f0e;stroke-linecap:square;stroke-width:1.5;"/>
   </g>
   <g id="line2d_18">
    <path clip-path="url(#pd334e331ad)" d="M 73.832727 295.488 
L 75.597154 288.897984 
L 77.361581 288.053124 
L 79.126008 288.718131 
L 80.890434 288.047883 
L 82.654861 288.624542 
L 84.419288 287.686102 
L 86.183715 287.684122 
L 87.948142 287.551833 
L 89.712569 287.60012 
L 91.476996 288.104643 
L 93.241423 287.8254 
L 96.770277 288.069205 
L 98.534703 289.567187 
L 100.29913 290.204173 
L 102.063557 290.130439 
L 103.827984 288.829427 
L 107.356838 288.645114 
L 109.121264 288.250754 
L 110.885691 287.238459 
L 114.414545 287.148646 
L 151.46751 287.151034 
L 153.231936 287.638809 
L 154.996363 288.310464 
L 158.525217 287.309252 
L 163.818498 287.724735 
L 165.582924 287.495127 
L 170.876205 287.523948 
L 172.640632 287.639303 
L 174.405059 287.916987 
L 176.169486 287.524085 
L 181.462767 287.628874 
L 186.756047 287.371234 
L 192.049328 287.941925 
L 193.813755 287.546925 
L 195.578181 287.857256 
L 197.342608 287.509897 
L 199.107035 287.616256 
L 200.871462 287.404311 
L 202.635889 288.099382 
L 204.400316 287.419751 
L 207.92917 287.673602 
L 209.693596 288.123508 
L 211.458024 288.100475 
L 213.22245 288.3625 
L 214.986877 288.038455 
L 216.751304 288.209555 
L 218.515731 288.142581 
L 222.044585 288.313641 
L 223.809011 288.900404 
L 225.573438 289.098014 
L 227.337865 288.826236 
L 230.866719 287.874405 
L 232.631146 287.961102 
L 234.395573 287.769828 
L 237.924427 288.058577 
L 239.688853 287.711419 
L 241.45328 287.609678 
L 243.217707 287.680469 
L 244.982134 287.894606 
L 246.746561 287.650846 
L 250.275414 287.814088 
L 252.039842 287.646591 
L 253.804268 287.732472 
L 257.333122 287.599917 
L 259.097549 287.612596 
L 260.861976 287.503542 
L 266.155257 287.718887 
L 267.919683 287.865913 
L 269.68411 287.825836 
L 271.448537 288.611751 
L 273.212964 287.964982 
L 274.977391 287.563251 
L 289.092806 287.537746 
L 290.857233 287.77725 
L 294.386086 287.885011 
L 296.150514 288.110883 
L 304.972648 287.707582 
L 306.737075 287.505333 
L 317.323636 287.418266 
L 319.088063 287.554683 
L 327.910197 287.386568 
L 329.674624 287.435751 
L 333.203478 287.237748 
L 340.261185 287.279 
L 354.3766 287.236538 
L 356.141027 287.518825 
L 357.905454 287.297072 
L 359.669881 287.397173 
L 361.434308 287.364236 
L 363.198735 287.551874 
L 366.727589 287.757828 
L 368.492015 287.879071 
L 370.256442 287.632646 
L 373.785296 287.615834 
L 377.31415 287.426293 
L 380.843003 287.503942 
L 382.60743 287.31308 
L 384.371857 287.400407 
L 386.136284 287.320391 
L 387.900711 287.626278 
L 389.665138 287.783942 
L 391.429565 287.399845 
L 393.193992 287.414598 
L 394.958418 287.921812 
L 396.722846 287.856398 
L 398.487272 289.59308 
L 398.487272 289.59308 
" style="fill:none;stroke:#008000;stroke-linecap:square;stroke-width:1.5;"/>
   </g>
   <g id="patch_3">
    <path d="M 57.6 307.584 
L 57.6 41.472 
" style="fill:none;stroke:#000000;stroke-linecap:square;stroke-linejoin:miter;stroke-width:0.8;"/>
   </g>
   <g id="patch_4">
    <path d="M 414.72 307.584 
L 414.72 41.472 
" style="fill:none;stroke:#000000;stroke-linecap:square;stroke-linejoin:miter;stroke-width:0.8;"/>
   </g>
   <g id="patch_5">
    <path d="M 57.599999 307.584 
L 414.72 307.584 
" style="fill:none;stroke:#000000;stroke-linecap:square;stroke-linejoin:miter;stroke-width:0.8;"/>
   </g>
   <g id="patch_6">
    <path d="M 57.599999 41.472 
L 414.72 41.472 
" style="fill:none;stroke:#000000;stroke-linecap:square;stroke-linejoin:miter;stroke-width:0.8;"/>
   </g>
   <g id="legend_1">
    <g id="patch_7">
     <path d="M 344.695 78.82825 
L 407.72 78.82825 
Q 409.72 78.82825 409.72 76.82825 
L 409.72 48.472 
Q 409.72 46.472 407.72 46.472 
L 344.695 46.472 
Q 342.695 46.472 342.695 48.472 
L 342.695 76.82825 
Q 342.695 78.82825 344.695 78.82825 
z
" style="fill:#ffffff;opacity:0.8;stroke:#cccccc;stroke-linejoin:miter;"/>
    </g>
    <g id="line2d_19">
     <path d="M 346.695 54.570437 
L 366.695 54.570437 
" style="fill:none;stroke:#1f77b4;stroke-linecap:square;stroke-width:1.5;"/>
    </g>
    <g id="line2d_20"/>
    <g id="text_18">
     <!-- Basalt -->
     <defs>
      <path d="M 19.671875 34.8125 
L 19.671875 8.109375 
L 35.5 8.109375 
Q 43.453125 8.109375 47.28125 11.40625 
Q 51.125 14.703125 51.125 21.484375 
Q 51.125 28.328125 47.28125 31.5625 
Q 43.453125 34.8125 35.5 34.8125 
z
M 19.671875 64.796875 
L 19.671875 42.828125 
L 34.28125 42.828125 
Q 41.5 42.828125 45.03125 45.53125 
Q 48.578125 48.25 48.578125 53.8125 
Q 48.578125 59.328125 45.03125 62.0625 
Q 41.5 64.796875 34.28125 64.796875 
z
M 9.8125 72.90625 
L 35.015625 72.90625 
Q 46.296875 72.90625 52.390625 68.21875 
Q 58.5 63.53125 58.5 54.890625 
Q 58.5 48.1875 55.375 44.234375 
Q 52.25 40.28125 46.1875 39.3125 
Q 53.46875 37.75 57.5 32.78125 
Q 61.53125 27.828125 61.53125 20.40625 
Q 61.53125 10.640625 54.890625 5.3125 
Q 48.25 0 35.984375 0 
L 9.8125 0 
z
" id="DejaVuSans-66"/>
      <path d="M 44.28125 53.078125 
L 44.28125 44.578125 
Q 40.484375 46.53125 36.375 47.5 
Q 32.28125 48.484375 27.875 48.484375 
Q 21.1875 48.484375 17.84375 46.4375 
Q 14.5 44.390625 14.5 40.28125 
Q 14.5 37.15625 16.890625 35.375 
Q 19.28125 33.59375 26.515625 31.984375 
L 29.59375 31.296875 
Q 39.15625 29.25 43.1875 25.515625 
Q 47.21875 21.78125 47.21875 15.09375 
Q 47.21875 7.46875 41.1875 3.015625 
Q 35.15625 -1.421875 24.609375 -1.421875 
Q 20.21875 -1.421875 15.453125 -0.5625 
Q 10.6875 0.296875 5.421875 2 
L 5.421875 11.28125 
Q 10.40625 8.6875 15.234375 7.390625 
Q 20.0625 6.109375 24.8125 6.109375 
Q 31.15625 6.109375 34.5625 8.28125 
Q 37.984375 10.453125 37.984375 14.40625 
Q 37.984375 18.0625 35.515625 20.015625 
Q 33.0625 21.96875 24.703125 23.78125 
L 21.578125 24.515625 
Q 13.234375 26.265625 9.515625 29.90625 
Q 5.8125 33.546875 5.8125 39.890625 
Q 5.8125 47.609375 11.28125 51.796875 
Q 16.75 56 26.8125 56 
Q 31.78125 56 36.171875 55.265625 
Q 40.578125 54.546875 44.28125 53.078125 
z
" id="DejaVuSans-115"/>
      <path d="M 9.421875 75.984375 
L 18.40625 75.984375 
L 18.40625 0 
L 9.421875 0 
z
" id="DejaVuSans-108"/>
     </defs>
     <g transform="translate(374.695 58.070437)scale(0.1 -0.1)">
      <use xlink:href="#DejaVuSans-66"/>
      <use x="68.603516" xlink:href="#DejaVuSans-97"/>
      <use x="129.882812" xlink:href="#DejaVuSans-115"/>
      <use x="181.982422" xlink:href="#DejaVuSans-97"/>
      <use x="243.261719" xlink:href="#DejaVuSans-108"/>
      <use x="271.044922" xlink:href="#DejaVuSans-116"/>
     </g>
    </g>
    <g id="line2d_21">
     <path d="M 346.695 69.248562 
L 366.695 69.248562 
" style="fill:none;stroke:#ff7f0e;stroke-linecap:square;stroke-width:1.5;"/>
    </g>
    <g id="line2d_22"/>
    <g id="text_19">
     <!-- Basalt -->
     <g transform="translate(374.695 72.748562)scale(0.1 -0.1)">
      <use xlink:href="#DejaVuSans-66"/>
      <use x="68.603516" xlink:href="#DejaVuSans-97"/>
      <use x="129.882812" xlink:href="#DejaVuSans-115"/>
      <use x="181.982422" xlink:href="#DejaVuSans-97"/>
      <use x="243.261719" xlink:href="#DejaVuSans-108"/>
      <use x="271.044922" xlink:href="#DejaVuSans-116"/>
     </g>
    </g>
   </g>
  </g>
 </g>
 <defs>
  <clipPath id="pd334e331ad">
   <rect height="266.112" width="357.12" x="57.6" y="41.472"/>
  </clipPath>
 </defs>
</svg>
